# xmcd CD database file
#
# Track frame offsets:
#	187
#	21795
#	45842
#	64325
#	85365
#	104835
#	123995
#	140322
#	160572
#	176207
#
# Disc length: 2587 seconds
#
# Revision: 0
# Processed by: cddbd v1.5.2PL0 Copyright (c) Steve Scherf et al.
# Submitted via: CDex 2.23
#
DISCID=820a190a
DTITLE=TAMORI - HOW ABOUT THIS
DYEAR=1986
DGENRE=Jazz
TTITLE0=I GOT SOMETHING ROMANTIC
TTITLE1=LAZY AFTERNOON
TTITLE2=MIDSHIP FRIENDSHIP
TTITLE3=IN THE END OF THIS NIGHT
TTITLE4=IN THE MOVEMENT
TTITLE5=HARVEST MOON
TTITLE6=THE WALTZ IN WALTZ
TTITLE7=COMPONENT TIME
TTITLE8=COMFORTABLE POSITION
TTITLE9=GENTLY LIKE A SUNSET
EXTD=YEAR: 1986
EXTT0=
EXTT1=
EXTT2=
EXTT3=
EXTT4=
EXTT5=
EXTT6=
EXTT7=
EXTT8=
EXTT9=
PLAYORDER=
